<mxfile host="app.diagrams.net" modified="2024-02-16T15:55:35.860Z" agent="Mozilla/5.0 (Windows NT 10.0; Win64; x64) AppleWebKit/537.36 (KHTML, like Gecko) Chrome/121.0.0.0 Safari/537.36" etag="MXgcb6A7w8BhEnxdCGl1" version="23.1.2" type="device">
  <diagram name="Page-1" id="hFwhQk6YxRnWlAJZISRS">
    <mxGraphModel dx="735" dy="403" grid="1" gridSize="10" guides="1" tooltips="1" connect="1" arrows="1" fold="1" page="1" pageScale="1" pageWidth="850" pageHeight="1100" math="0" shadow="0">
      <root>
        <mxCell id="0" />
        <mxCell id="1" parent="0" />
        <mxCell id="JpbQ0CbqDjbwNVCKvpY6-1" value="frontend" style="shape=note;whiteSpace=wrap;html=1;backgroundOutline=1;darkOpacity=0.05;fillColor=#fff2cc;strokeColor=#d6b656;" vertex="1" parent="1">
          <mxGeometry x="70" y="200" width="170" height="200" as="geometry" />
        </mxCell>
        <mxCell id="JpbQ0CbqDjbwNVCKvpY6-3" value="backend" style="shape=cube;whiteSpace=wrap;html=1;boundedLbl=1;backgroundOutline=1;darkOpacity=0.05;darkOpacity2=0.1;fillColor=#dae8fc;strokeColor=#6c8ebf;" vertex="1" parent="1">
          <mxGeometry x="440" y="200" width="300" height="200" as="geometry" />
        </mxCell>
        <mxCell id="JpbQ0CbqDjbwNVCKvpY6-4" value="" style="shape=flexArrow;endArrow=classic;startArrow=classic;html=1;rounded=0;exitX=0.998;exitY=0.534;exitDx=0;exitDy=0;exitPerimeter=0;entryX=0;entryY=0;entryDx=0;entryDy=90;entryPerimeter=0;fillColor=#e1d5e7;strokeColor=#9673a6;" edge="1" parent="1" source="JpbQ0CbqDjbwNVCKvpY6-1" target="JpbQ0CbqDjbwNVCKvpY6-3">
          <mxGeometry width="100" height="100" relative="1" as="geometry">
            <mxPoint x="280" y="360" as="sourcePoint" />
            <mxPoint x="380" y="260" as="targetPoint" />
          </mxGeometry>
        </mxCell>
        <mxCell id="JpbQ0CbqDjbwNVCKvpY6-5" value="ui / ux (красота и удобство)" style="text;html=1;strokeColor=#d6b656;fillColor=#fff2cc;align=center;verticalAlign=middle;whiteSpace=wrap;rounded=0;" vertex="1" parent="1">
          <mxGeometry x="100" y="130" width="110" height="40" as="geometry" />
        </mxCell>
        <mxCell id="JpbQ0CbqDjbwNVCKvpY6-6" value="crud (производительность, безопасность, консистентность)" style="text;html=1;strokeColor=#6c8ebf;fillColor=#dae8fc;align=center;verticalAlign=middle;whiteSpace=wrap;rounded=0;" vertex="1" parent="1">
          <mxGeometry x="460" y="120" width="220" height="60" as="geometry" />
        </mxCell>
        <mxCell id="JpbQ0CbqDjbwNVCKvpY6-7" value="API" style="text;html=1;strokeColor=#9673a6;fillColor=#e1d5e7;align=center;verticalAlign=middle;whiteSpace=wrap;rounded=0;" vertex="1" parent="1">
          <mxGeometry x="310" y="250" width="60" height="30" as="geometry" />
        </mxCell>
        <mxCell id="JpbQ0CbqDjbwNVCKvpY6-8" value="HTTP 1.1 TCP/IP&amp;nbsp;" style="text;html=1;strokeColor=none;fillColor=none;align=center;verticalAlign=middle;whiteSpace=wrap;rounded=0;" vertex="1" parent="1">
          <mxGeometry x="285" y="320" width="110" height="20" as="geometry" />
        </mxCell>
      </root>
    </mxGraphModel>
  </diagram>
</mxfile>
